<?xml version="1.0" encoding="UTF-8" standalone="no"?>
<!-- Created with Inkscape (http://www.inkscape.org/) -->

<svg
   xmlns:dc="http://purl.org/dc/elements/1.1/"
   xmlns:cc="http://creativecommons.org/ns#"
   xmlns:rdf="http://www.w3.org/1999/02/22-rdf-syntax-ns#"
   xmlns:svg="http://www.w3.org/2000/svg"
   xmlns="http://www.w3.org/2000/svg"
   xmlns:sodipodi="http://sodipodi.sourceforge.net/DTD/sodipodi-0.dtd"
   xmlns:inkscape="http://www.inkscape.org/namespaces/inkscape"
   width="70mm"
   height="94.993752mm"
   viewBox="0 0 70 94.993752"
   version="1.1"
   id="svg4863"
   inkscape:version="0.92.3pre0 (0ab9bec, 2018-03-03)"
   sodipodi:docname="braces.svg">
  <defs
     id="defs4857" />
  <sodipodi:namedview
     id="base"
     pagecolor="#ffffff"
     bordercolor="#666666"
     borderopacity="1.0"
     inkscape:pageopacity="0.0"
     inkscape:pageshadow="2"
     inkscape:zoom="0.35"
     inkscape:cx="-348.01423"
     inkscape:cy="494.71648"
     inkscape:document-units="mm"
     inkscape:current-layer="layer1"
     showgrid="false"
     fit-margin-top="10"
     fit-margin-left="10"
     fit-margin-right="10"
     fit-margin-bottom="10"
     inkscape:window-width="1920"
     inkscape:window-height="1036"
     inkscape:window-x="0"
     inkscape:window-y="0"
     inkscape:window-maximized="1" />
  <metadata
     id="metadata4860">
    <rdf:RDF>
      <cc:Work
         rdf:about="">
        <dc:format>image/svg+xml</dc:format>
        <dc:type
           rdf:resource="http://purl.org/dc/dcmitype/StillImage" />
        <dc:title></dc:title>
      </cc:Work>
    </rdf:RDF>
  </metadata>
  <g
     inkscape:label="Layer 1"
     inkscape:groupmode="layer"
     id="layer1"
     transform="translate(-47.85555,-153.19245)">
    <g
       transform="matrix(1.2857133,0,0,-1.2857133,73.022015,203.63069)"
       id="g90"
       style="fill:#00b0bd;fill-opacity:1">
      <path
         inkscape:connector-curvature="0"
         id="path92"
         style="fill:#00b0bd;fill-opacity:1;fill-rule:nonzero;stroke:none"
         d="M 0,0 C 0.356,0.652 1.04,1.1 1.836,1.1 2.632,1.1 3.315,0.652 3.672,0 H 7.17 C 6.45,4.41 4.954,9 1.836,9 -1.282,9 -2.778,4.41 -3.498,0 Z" />
    </g>
    <g
       transform="matrix(1.2857133,0,0,-1.2857133,62.314345,206.20214)"
       id="g94"
       style="fill:#00b0bd;fill-opacity:1">
      <path
         inkscape:connector-curvature="0"
         id="path96"
         style="fill:#00b0bd;fill-opacity:1;fill-rule:nonzero;stroke:none"
         d="m 0,0 c -0.356,-0.652 -1.04,-1.1 -1.836,-1.1 -1.16,0 -2.1,0.94 -2.1,2.1 0,1.16 0.94,2.1 2.1,2.1 C -1.04,3.1 -0.356,2.652 0,2 h 1.803 c -0.78,6.583 -2.664,9 -4.139,9 -2.643,0 -4.423,-4.476 -4.5,-14 -0.004,-0.456 0.346,-1.016 0.841,-1.137 1.11,-0.27 3.358,-0.728 6.97,-0.863 0.645,-0.024 1.196,0.426 1.189,1 -0.017,1.458 -0.075,2.784 -0.166,4 z" />
    </g>
    <g
       transform="matrix(1.2857133,0,0,-1.2857133,91.022008,203.63069)"
       id="g98"
       style="fill:#00b0bd;fill-opacity:1">
      <path
         inkscape:connector-curvature="0"
         id="path100"
         style="fill:#00b0bd;fill-opacity:1;fill-rule:nonzero;stroke:none"
         d="M 0,0 C 0.356,0.652 1.04,1.1 1.836,1.1 2.632,1.1 3.315,0.652 3.672,0 H 7.17 C 6.45,4.41 4.954,9 1.836,9 -1.282,9 -2.778,4.41 -3.498,0 Z" />
    </g>
    <g
       transform="matrix(1.2857133,0,0,-1.2857133,109.45386,192.05927)"
       id="g102"
       style="fill:#00b0bd;fill-opacity:1">
      <path
         inkscape:connector-curvature="0"
         id="path104"
         style="fill:#00b0bd;fill-opacity:1;fill-rule:nonzero;stroke:none"
         d="m 0,0 c -1.475,0 -3.359,-2.417 -4.14,-9 h 1.804 c 0.357,0.652 1.04,1.1 1.836,1.1 1.16,0 2.1,-0.94 2.1,-2.1 0,-1.16 -0.94,-2.1 -2.1,-2.1 -0.796,0 -1.479,0.448 -1.836,1.1 h -1.998 c -0.091,-1.216 -0.149,-2.542 -0.166,-4 -0.007,-0.574 0.544,-1.024 1.189,-1 3.612,0.135 5.86,0.593 6.97,0.863 C 4.154,-15.016 4.504,-14.456 4.5,-14 4.423,-4.476 2.644,0 0,0" />
    </g>
    <g
       transform="matrix(1.2857133,0,0,-1.2857133,95.742883,206.20214)"
       id="g106"
       style="fill:#00b0bd;fill-opacity:1">
      <path
         inkscape:connector-curvature="0"
         id="path108"
         style="fill:#00b0bd;fill-opacity:1;fill-rule:nonzero;stroke:none"
         d="m 0,0 c -0.356,-0.652 -1.04,-1.1 -1.836,-1.1 -0.796,0 -1.479,0.448 -1.836,1.1 H -7.449 C -7.687,-2.009 -7.778,-3.815 -7.813,-4.908 -7.833,-5.509 -7.38,-6 -6.813,-6 h 9.955 c 0.565,0 1.019,0.491 1,1.092 C 4.106,-3.815 4.014,-2.009 3.777,0 Z" />
    </g>
    <g
       transform="matrix(1.2857133,0,0,-1.2857133,77.742904,206.20214)"
       id="g110"
       style="fill:#00b0bd;fill-opacity:1">
      <path
         inkscape:connector-curvature="0"
         id="path112"
         style="fill:#00b0bd;fill-opacity:1;fill-rule:nonzero;stroke:none"
         d="m 0,0 c -0.356,-0.652 -1.04,-1.1 -1.836,-1.1 -0.796,0 -1.479,0.448 -1.836,1.1 H -7.449 C -7.687,-2.009 -7.778,-3.815 -7.813,-4.908 -7.833,-5.509 -7.38,-6 -6.813,-6 h 9.955 c 0.566,0 1.019,0.491 1,1.092 C 4.106,-3.815 4.015,-2.009 3.777,0 Z" />
    </g>
  </g>
</svg>
