<?xml version="1.0" encoding="UTF-8" standalone="no"?>
<!-- Created with Inkscape (http://www.inkscape.org/) -->

<svg
   xmlns:dc="http://purl.org/dc/elements/1.1/"
   xmlns:cc="http://creativecommons.org/ns#"
   xmlns:rdf="http://www.w3.org/1999/02/22-rdf-syntax-ns#"
   xmlns:svg="http://www.w3.org/2000/svg"
   xmlns="http://www.w3.org/2000/svg"
   xmlns:sodipodi="http://sodipodi.sourceforge.net/DTD/sodipodi-0.dtd"
   xmlns:inkscape="http://www.inkscape.org/namespaces/inkscape"
   width="70mm"
   height="94.993752mm"
   viewBox="0 0 70 94.993752"
   version="1.1"
   id="svg4863"
   inkscape:version="0.92.3pre0 (0ab9bec, 2018-03-03)"
   sodipodi:docname="checkup.svg">
  <defs
     id="defs4857" />
  <sodipodi:namedview
     id="base"
     pagecolor="#ffffff"
     bordercolor="#666666"
     borderopacity="1.0"
     inkscape:pageopacity="0.0"
     inkscape:pageshadow="2"
     inkscape:zoom="0.35"
     inkscape:cx="-348.01423"
     inkscape:cy="494.71648"
     inkscape:document-units="mm"
     inkscape:current-layer="layer1"
     showgrid="false"
     fit-margin-top="10"
     fit-margin-left="10"
     fit-margin-right="10"
     fit-margin-bottom="10"
     inkscape:window-width="1920"
     inkscape:window-height="1036"
     inkscape:window-x="0"
     inkscape:window-y="0"
     inkscape:window-maximized="1" />
  <metadata
     id="metadata4860">
    <rdf:RDF>
      <cc:Work
         rdf:about="">
        <dc:format>image/svg+xml</dc:format>
        <dc:type
           rdf:resource="http://purl.org/dc/dcmitype/StillImage" />
        <dc:title></dc:title>
      </cc:Work>
    </rdf:RDF>
  </metadata>
  <g
     inkscape:label="Layer 1"
     inkscape:groupmode="layer"
     id="layer1"
     transform="translate(-47.85555,-153.19245)">
    <g
       transform="matrix(1.2500001,0,0,-1.2500001,86.301591,170.95051)"
       id="g232"
       style="fill:#00b0bd;fill-opacity:1">
      <path
         inkscape:connector-curvature="0"
         id="path234"
         style="fill:#00b0bd;fill-opacity:1;fill-rule:nonzero;stroke:none"
         d="M 0,0 C -1.027,0 -2.285,-0.625 -4,-0.625 -5.715,-0.625 -6.973,0 -8,0 c -1.027,0 -4,-0.807 -4,-4.5 0,-3.5 1.5,-5.441 1.5,-6.5 0,-0.617 -0.051,-5.968 0.687,-9.139 0.532,-2.286 1.241,-3.861 2.098,-3.861 0.86,0 0.813,2.961 1.209,5.117 0.393,2.141 1.361,4.883 2.506,4.883 1.145,0 2.113,-2.742 2.506,-4.883 0.396,-2.156 0.349,-5.117 1.209,-5.117 0.857,0 1.566,1.575 2.097,3.861 C 2.551,-16.968 2.5,-11.617 2.5,-11 2.5,-9.941 4,-8 4,-4.5 4,-0.807 1.027,0 0,0" />
    </g>
    <g
       transform="matrix(1.2500001,0,0,-1.2500001,80.051583,222.09676)"
       id="g236"
       style="fill:#00b0bd;fill-opacity:1">
      <path
         inkscape:connector-curvature="0"
         id="path238"
         style="fill:#00b0bd;fill-opacity:1;fill-rule:nonzero;stroke:none"
         d="m 0,0 c 0,-3.051 -1.19,-5.083 -7,-5.083 -4.007,0 -7,1.584 -7,3 0,1.416 2.993,3 7,3 2.238,0 4.579,-0.127 7,-0.378 z m 21,0.917 c -1.44,0 -2.692,-0.769 -3.396,-1.91 C 12.22,0.575 6.963,1.695 2,2.321 v 5.713 c 6.624,1.377 15,15.674 15,20.883 0,2.957 -1.053,4.159 -2.118,4.653 -0.272,0.783 -1.007,1.347 -1.882,1.347 -1.104,0 -2,-0.896 -2,-2 0,-1.105 0.896,-2 2,-2 0.545,0 1.037,0.219 1.397,0.572 C 14.755,31.099 15,30.354 15,28.917 15,26.688 12.818,21.826 9.925,17.607 6.673,12.864 3.253,9.917 1,9.917 c -2.253,0 -5.673,2.947 -8.925,7.69 -2.893,4.219 -5.075,9.081 -5.075,11.31 0,1.437 0.245,2.182 0.603,2.572 0.36,-0.353 0.852,-0.572 1.397,-0.572 1.104,0 2,0.895 2,2 0,1.104 -0.896,2 -2,2 -0.875,0 -1.61,-0.564 -1.882,-1.347 C -13.947,33.076 -15,31.874 -15,28.917 -15,23.708 -6.624,9.411 0,8.034 V 2.549 c -2.417,0.244 -4.758,0.368 -7,0.368 -5.131,0 -9,-2.149 -9,-5 0,-2.851 3.869,-5 9,-5 3.863,0 9,0.734 9,7.083 V 0.306 C 6.774,-0.312 11.833,-1.396 17.018,-2.905 17.016,-2.966 17,-3.022 17,-3.083 c 0,-2.209 1.791,-4 4,-4 2.209,0 4,1.791 4,4 0,2.209 -1.791,4 -4,4" />
    </g>
  </g>
</svg>
