<?xml version="1.0" encoding="UTF-8" standalone="no"?>
<!-- Created with Inkscape (http://www.inkscape.org/) -->

<svg
   xmlns:dc="http://purl.org/dc/elements/1.1/"
   xmlns:cc="http://creativecommons.org/ns#"
   xmlns:rdf="http://www.w3.org/1999/02/22-rdf-syntax-ns#"
   xmlns:svg="http://www.w3.org/2000/svg"
   xmlns="http://www.w3.org/2000/svg"
   xmlns:sodipodi="http://sodipodi.sourceforge.net/DTD/sodipodi-0.dtd"
   xmlns:inkscape="http://www.inkscape.org/namespaces/inkscape"
   width="70mm"
   height="94.993752mm"
   viewBox="0 0 70 94.993752"
   version="1.1"
   id="svg4863"
   inkscape:version="0.92.3pre0 (0ab9bec, 2018-03-03)"
   sodipodi:docname="crown.svg">
  <defs
     id="defs4857" />
  <sodipodi:namedview
     id="base"
     pagecolor="#ffffff"
     bordercolor="#666666"
     borderopacity="1.0"
     inkscape:pageopacity="0.0"
     inkscape:pageshadow="2"
     inkscape:zoom="0.35"
     inkscape:cx="-348.01423"
     inkscape:cy="494.71648"
     inkscape:document-units="mm"
     inkscape:current-layer="layer1"
     showgrid="false"
     fit-margin-top="10"
     fit-margin-left="10"
     fit-margin-right="10"
     fit-margin-bottom="10"
     inkscape:window-width="1920"
     inkscape:window-height="1036"
     inkscape:window-x="0"
     inkscape:window-y="0"
     inkscape:window-maximized="1" />
  <metadata
     id="metadata4860">
    <rdf:RDF>
      <cc:Work
         rdf:about="">
        <dc:format>image/svg+xml</dc:format>
        <dc:type
           rdf:resource="http://purl.org/dc/dcmitype/StillImage" />
        <dc:title></dc:title>
      </cc:Work>
    </rdf:RDF>
  </metadata>
  <g
     inkscape:label="Layer 1"
     inkscape:groupmode="layer"
     id="layer1"
     transform="translate(-47.85555,-153.19245)">
    <g
       transform="matrix(1.2500002,0,0,-1.2500002,93.377778,174.73026)"
       id="g42"
       style="fill:#00b0bd;fill-opacity:1">
      <path
         inkscape:connector-curvature="0"
         id="path44"
         style="fill:#00b0bd;fill-opacity:1;fill-rule:nonzero;stroke:none"
         d="m 0,0 c -2.053,0 -4.572,-1.25 -8,-1.25 -3.428,0 -5.947,1.25 -8,1.25 -2.053,0 -8,-1.619 -8,-9 0,-5.208 1.659,-8.686 2.509,-11 H -17 c 0.551,0 1,0.449 1,1 v 6 c 0,1.657 1.343,3 3,3 h 10 c 1.657,0 3,-1.343 3,-3 v -6 c 0,-0.551 0.449,-1 1,-1 H 5.491 C 6.341,-17.686 8,-14.208 8,-9 8,-1.619 2.053,0 0,0" />
    </g>
    <path
       inkscape:connector-curvature="0"
       id="path48"
       style="fill:#00b0bd;fill-opacity:1;fill-rule:nonzero;stroke:none;stroke-width:1.25000012"
       d="m 94.627775,202.23026 c -2.071247,0 -3.749999,-1.67875 -3.749999,-3.74999 v -7.50002 c 0,-0.68874 -0.56125,-1.25 -1.250001,-1.25 h -12.5 c -0.688752,0 -1.250001,0.56126 -1.250001,1.25 v 7.50002 c 0,2.07124 -1.678752,3.74999 -3.75,3.74999 H 67.12777 c 0,1.54126 -0.123768,14.92126 1.718753,22.84873 1.328751,5.71001 3.102499,9.65127 5.246249,9.65127 2.141253,0 2.033753,-7.4125 3.017503,-12.78376 0.982499,-5.37123 3.411248,-12.21623 6.267502,-12.21623 2.856249,0 5.284999,6.845 6.267498,12.21623 0.98375,5.37126 0.876249,12.78376 3.017502,12.78376 2.143751,0 3.917499,-3.94126 5.24625,-9.65127 1.842499,-7.92747 1.718749,-21.30747 1.718749,-22.84873 z" />
  </g>
</svg>
