<?xml version="1.0" encoding="UTF-8" standalone="no"?>
<!-- Created with Inkscape (http://www.inkscape.org/) -->

<svg
   xmlns:dc="http://purl.org/dc/elements/1.1/"
   xmlns:cc="http://creativecommons.org/ns#"
   xmlns:rdf="http://www.w3.org/1999/02/22-rdf-syntax-ns#"
   xmlns:svg="http://www.w3.org/2000/svg"
   xmlns="http://www.w3.org/2000/svg"
   xmlns:sodipodi="http://sodipodi.sourceforge.net/DTD/sodipodi-0.dtd"
   xmlns:inkscape="http://www.inkscape.org/namespaces/inkscape"
   width="70mm"
   height="94.993752mm"
   viewBox="0 0 70 94.993752"
   version="1.1"
   id="svg4863"
   inkscape:version="0.92.3pre0 (0ab9bec, 2018-03-03)"
   sodipodi:docname="dentalwhitening.svg">
  <defs
     id="defs4857" />
  <sodipodi:namedview
     id="base"
     pagecolor="#ffffff"
     bordercolor="#666666"
     borderopacity="1.0"
     inkscape:pageopacity="0.0"
     inkscape:pageshadow="2"
     inkscape:zoom="0.35"
     inkscape:cx="-348.01423"
     inkscape:cy="494.71648"
     inkscape:document-units="mm"
     inkscape:current-layer="layer1"
     showgrid="false"
     fit-margin-top="10"
     fit-margin-left="10"
     fit-margin-right="10"
     fit-margin-bottom="10"
     inkscape:window-width="1920"
     inkscape:window-height="1036"
     inkscape:window-x="0"
     inkscape:window-y="0"
     inkscape:window-maximized="1" />
  <metadata
     id="metadata4860">
    <rdf:RDF>
      <cc:Work
         rdf:about="">
        <dc:format>image/svg+xml</dc:format>
        <dc:type
           rdf:resource="http://purl.org/dc/dcmitype/StillImage" />
        <dc:title></dc:title>
      </cc:Work>
    </rdf:RDF>
  </metadata>
  <g
     inkscape:label="Layer 1"
     inkscape:groupmode="layer"
     id="layer1"
     transform="translate(-47.85555,-153.19245)">
    <g
       transform="matrix(1.1402282,0,0,-1.1402282,100.39424,184.51612)"
       id="g22"
       style="fill:#00b0bd;fill-opacity:1">
      <path
         inkscape:connector-curvature="0"
         id="path24"
         style="fill:#00b0bd;fill-opacity:1;fill-rule:nonzero;stroke:none"
         d="m 0,0 c 0,7.381 -5.947,9 -8,9 -2.053,0 -4.572,-1.25 -8,-1.25 -3.428,0 -5.947,1.25 -8,1.25 -2.053,0 -8,-1.619 -8,-9 0,-7 3,-10.879 3,-13 0,-1.233 -0.099,-11.937 1.375,-18.279 1.063,-4.568 2.482,-7.721 4.197,-7.721 1.713,0 1.627,5.93 2.414,10.227 0.786,4.297 2.729,9.773 5.014,9.773 2.285,0 4.228,-5.476 5.014,-9.773 0.787,-4.297 0.701,-10.227 2.414,-10.227 1.715,0 3.135,3.153 4.197,7.721 C -2.901,-24.937 -3,-14.233 -3,-13 c 0,2.121 3,6 3,13" />
    </g>
  </g>
</svg>
