<?xml version="1.0" encoding="UTF-8" standalone="no"?>
<!-- Created with Inkscape (http://www.inkscape.org/) -->

<svg
   xmlns:dc="http://purl.org/dc/elements/1.1/"
   xmlns:cc="http://creativecommons.org/ns#"
   xmlns:rdf="http://www.w3.org/1999/02/22-rdf-syntax-ns#"
   xmlns:svg="http://www.w3.org/2000/svg"
   xmlns="http://www.w3.org/2000/svg"
   xmlns:sodipodi="http://sodipodi.sourceforge.net/DTD/sodipodi-0.dtd"
   xmlns:inkscape="http://www.inkscape.org/namespaces/inkscape"
   width="70mm"
   height="94.993752mm"
   viewBox="0 0 70 94.993752"
   version="1.1"
   id="svg4863"
   inkscape:version="0.92.3pre0 (0ab9bec, 2018-03-03)"
   sodipodi:docname="denture.svg">
  <defs
     id="defs4857" />
  <sodipodi:namedview
     id="base"
     pagecolor="#ffffff"
     bordercolor="#666666"
     borderopacity="1.0"
     inkscape:pageopacity="0.0"
     inkscape:pageshadow="2"
     inkscape:zoom="1.4"
     inkscape:cx="360.41692"
     inkscape:cy="143.26003"
     inkscape:document-units="mm"
     inkscape:current-layer="g160"
     showgrid="false"
     fit-margin-top="10"
     fit-margin-left="10"
     fit-margin-right="10"
     fit-margin-bottom="10"
     inkscape:window-width="1920"
     inkscape:window-height="1036"
     inkscape:window-x="0"
     inkscape:window-y="0"
     inkscape:window-maximized="1" />
  <metadata
     id="metadata4860">
    <rdf:RDF>
      <cc:Work
         rdf:about="">
        <dc:format>image/svg+xml</dc:format>
        <dc:type
           rdf:resource="http://purl.org/dc/dcmitype/StillImage" />
        <dc:title></dc:title>
      </cc:Work>
    </rdf:RDF>
  </metadata>
  <g
     inkscape:label="Layer 1"
     inkscape:groupmode="layer"
     id="layer1"
     transform="translate(-47.85555,-153.19245)">
    <g
       transform="matrix(1.045734,0,0,-1.045734,100.873,194.17341)"
       id="g160"
       style="fill:#00b0bd;fill-opacity:1">
      <g
         transform="matrix(0.97816276,0,0,0.97816276,-12.526158,-16.404036)"
         id="g50"
         style="fill:#00b0bd;fill-opacity:1">
        <path
           inkscape:connector-curvature="0"
           id="path52"
           style="fill:#00b0bd;fill-opacity:1;fill-rule:nonzero;stroke:none"
           d="m 0,0 c -0.531,-2.285 -1.18,-3.961 -2.039,-3.961 -0.855,0 -0.813,3.064 -1.203,5.214 -0.391,2.146 -1.364,4.886 -2.508,4.886 -1.144,0 -2.117,-2.74 -2.508,-4.886 -0.39,-2.15 -0.348,-5.214 -1.203,-5.214 -0.859,0 -1.508,1.676 -2.039,3.961 -0.738,3.171 -0.45,8.521 -0.45,9.139 0,1.058 -1.9,3 -1.9,6.5 0,3.692 3.077,4.6 4.1,4.6 1.023,0 2.289,-0.85 4,-0.85 1.711,0 2.977,0.85 4,0.85 1.023,0 4.1,-0.908 4.1,-4.6 0,-3.5 -1.9,-5.442 -1.9,-6.5 C 0.45,8.521 0.738,3.171 0,0 m -13.75,22.139 h -8 v 2 h 8 z m -10,0 h -2 v 2 h 2 z m -6,2 v -32 c 0,-2.209 1.791,-4 4,-4 h 40 c 2.209,0 4,1.791 4,4 v 32 c 0,2.209 -1.791,4 -4,4 h -40 c -2.209,0 -4,-1.791 -4,-4" />
      </g>
    </g>
  </g>
</svg>
