<?xml version="1.0" encoding="UTF-8" standalone="no"?>
<!-- Created with Inkscape (http://www.inkscape.org/) -->

<svg
   xmlns:dc="http://purl.org/dc/elements/1.1/"
   xmlns:cc="http://creativecommons.org/ns#"
   xmlns:rdf="http://www.w3.org/1999/02/22-rdf-syntax-ns#"
   xmlns:svg="http://www.w3.org/2000/svg"
   xmlns="http://www.w3.org/2000/svg"
   xmlns:sodipodi="http://sodipodi.sourceforge.net/DTD/sodipodi-0.dtd"
   xmlns:inkscape="http://www.inkscape.org/namespaces/inkscape"
   width="70mm"
   height="94.993752mm"
   viewBox="0 0 70 94.993752"
   version="1.1"
   id="svg4863"
   inkscape:version="0.92.3pre0 (0ab9bec, 2018-03-03)"
   sodipodi:docname="filling.svg">
  <defs
     id="defs4857" />
  <sodipodi:namedview
     id="base"
     pagecolor="#ffffff"
     bordercolor="#666666"
     borderopacity="1.0"
     inkscape:pageopacity="0.0"
     inkscape:pageshadow="2"
     inkscape:zoom="0.35"
     inkscape:cx="-389.4428"
     inkscape:cy="483.28791"
     inkscape:document-units="mm"
     inkscape:current-layer="layer1"
     showgrid="false"
     fit-margin-top="10"
     fit-margin-left="10"
     fit-margin-right="10"
     fit-margin-bottom="10"
     inkscape:window-width="1920"
     inkscape:window-height="1036"
     inkscape:window-x="0"
     inkscape:window-y="0"
     inkscape:window-maximized="1" />
  <metadata
     id="metadata4860">
    <rdf:RDF>
      <cc:Work
         rdf:about="">
        <dc:format>image/svg+xml</dc:format>
        <dc:type
           rdf:resource="http://purl.org/dc/dcmitype/StillImage" />
        <dc:title></dc:title>
      </cc:Work>
    </rdf:RDF>
  </metadata>
  <g
     inkscape:label="Layer 1"
     inkscape:groupmode="layer"
     id="layer1"
     transform="translate(-47.85555,-153.19245)">
    <g
       transform="matrix(1.2501042,0,0,-1.2501042,103.15055,182.62857)"
       id="g216"
       style="fill:#00b0bd;fill-opacity:1">
      <path
         inkscape:connector-curvature="0"
         id="path218"
         style="fill:#00b0bd;fill-opacity:1;fill-rule:nonzero;stroke:none"
         d="M 0,0 C 0,7.274 -5.768,8.948 -7.9,8.996 -7.902,4.421 -11.515,-1.1 -16,-1.1 c -4.485,0 -8.097,5.521 -8.1,10.096 C -26.232,8.948 -32,7.274 -32,0 c 0,-7 3,-10.879 3,-13 0,-1.233 -0.099,-11.937 1.375,-18.279 1.063,-4.568 2.482,-7.721 4.197,-7.721 1.713,0 1.627,5.93 2.414,10.227 0.786,4.297 2.729,9.773 5.014,9.773 2.285,0 4.228,-5.476 5.014,-9.773 0.787,-4.297 0.701,-10.227 2.414,-10.227 1.715,0 3.135,3.153 4.197,7.721 C -2.901,-24.937 -3,-14.233 -3,-13 c 0,2.121 3,6 3,13" />
    </g>
    <g
       transform="matrix(1.2501042,0,0,-1.2501042,83.148899,181.25333)"
       id="g220"
       style="fill:#00b0bd;fill-opacity:1">
      <path
         inkscape:connector-curvature="0"
         id="path222"
         style="fill:#00b0bd;fill-opacity:1;fill-rule:nonzero;stroke:none"
         d="M 0,0 C 2.952,0 5.727,4.196 5.885,7.597 4.25,7.228 2.341,6.65 0,6.65 -2.341,6.65 -4.25,7.228 -5.885,7.597 -5.727,4.196 -2.952,0 0,0" />
    </g>
  </g>
</svg>
