<?xml version="1.0" encoding="UTF-8" standalone="no"?>
<!-- Created with Inkscape (http://www.inkscape.org/) -->

<svg
   xmlns:dc="http://purl.org/dc/elements/1.1/"
   xmlns:cc="http://creativecommons.org/ns#"
   xmlns:rdf="http://www.w3.org/1999/02/22-rdf-syntax-ns#"
   xmlns:svg="http://www.w3.org/2000/svg"
   xmlns="http://www.w3.org/2000/svg"
   xmlns:sodipodi="http://sodipodi.sourceforge.net/DTD/sodipodi-0.dtd"
   xmlns:inkscape="http://www.inkscape.org/namespaces/inkscape"
   width="70mm"
   height="94.993752mm"
   viewBox="0 0 70 94.993752"
   version="1.1"
   id="svg4863"
   inkscape:version="0.92.3pre0 (0ab9bec, 2018-03-03)"
   sodipodi:docname="implant.svg">
  <defs
     id="defs4857" />
  <sodipodi:namedview
     id="base"
     pagecolor="#ffffff"
     bordercolor="#666666"
     borderopacity="1.0"
     inkscape:pageopacity="0.0"
     inkscape:pageshadow="2"
     inkscape:zoom="0.35"
     inkscape:cx="-348.01423"
     inkscape:cy="494.71648"
     inkscape:document-units="mm"
     inkscape:current-layer="layer1"
     showgrid="false"
     fit-margin-top="10"
     fit-margin-left="10"
     fit-margin-right="10"
     fit-margin-bottom="10"
     inkscape:window-width="1920"
     inkscape:window-height="1036"
     inkscape:window-x="0"
     inkscape:window-y="0"
     inkscape:window-maximized="1" />
  <metadata
     id="metadata4860">
    <rdf:RDF>
      <cc:Work
         rdf:about="">
        <dc:format>image/svg+xml</dc:format>
        <dc:type
           rdf:resource="http://purl.org/dc/dcmitype/StillImage" />
        <dc:title></dc:title>
      </cc:Work>
    </rdf:RDF>
  </metadata>
  <g
     inkscape:label="Layer 1"
     inkscape:groupmode="layer"
     id="layer1"
     transform="translate(-47.85555,-153.19245)">
    <g
       transform="matrix(1.2707199,0,0,-1.2707199,91.675583,170.17193)"
       id="g114"
       style="fill:#00b0bd;fill-opacity:1">
      <path
         inkscape:connector-curvature="0"
         id="path116"
         style="fill:#00b0bd;fill-opacity:1;fill-rule:nonzero;stroke:none"
         d="m 0,0 c -1.798,0 -4,-1.25 -7,-1.25 -3,0 -5.202,1.25 -7,1.25 -1.797,0 -7,-1.619 -7,-9 0,-5.819 2.765,-9.482 3.697,-11.771 0.305,-0.748 1.034,-1.229 1.843,-1.229 h 0.02 c 0.243,0 0.44,-0.197 0.44,-0.44 V -25 H 1 v 2.56 c 0,0.243 0.197,0.44 0.44,0.44 h 0.02 c 0.809,0 1.538,0.481 1.843,1.229 C 4.235,-18.482 7,-14.819 7,-9 7,-1.619 1.797,0 0,0" />
    </g>
    <g
       transform="matrix(1.2707199,0,0,-1.2707199,90.404891,219.72999)"
       id="g118"
       style="fill:#00b0bd;fill-opacity:1">
      <path
         inkscape:connector-curvature="0"
         id="path120"
         style="fill:#00b0bd;fill-opacity:1;fill-rule:nonzero;stroke:none"
         d="m 0,0 h -12 c -0.552,0 -1,-0.448 -1,-1 0,-0.552 0.448,-1 1,-1 h 1.118 l 0.353,-2 h 9.058 l 0.353,2 H 0 c 0.552,0 1,0.448 1,1 0,0.552 -0.448,1 -1,1" />
    </g>
    <g
       transform="matrix(1.2707199,0,0,-1.2707199,77.697683,228.62505)"
       id="g122"
       style="fill:#00b0bd;fill-opacity:1">
      <path
         inkscape:connector-curvature="0"
         id="path124"
         style="fill:#00b0bd;fill-opacity:1;fill-rule:nonzero;stroke:none"
         d="m 0,0 c 0,0 1,-2 4,-2 3,0 4,2 4,2 l 0.177,1 h -8.354 z" />
    </g>
    <g
       transform="matrix(1.2707199,0,0,-1.2707199,94.217039,204.48136)"
       id="g126"
       style="fill:#00b0bd;fill-opacity:1">
      <path
         inkscape:connector-curvature="0"
         id="path128"
         style="fill:#00b0bd;fill-opacity:1;fill-rule:nonzero;stroke:none"
         d="m 0,0 h -18 c -0.552,0 -1,-0.448 -1,-1 0,-0.552 0.448,-1 1,-1 h 2 l 0.353,-2 H -2.353 L -2,-2 h 2 c 0.552,0 1,0.448 1,1 0,0.552 -0.448,1 -1,1" />
    </g>
    <g
       transform="matrix(1.2707199,0,0,-1.2707199,92.946311,212.1057)"
       id="g130"
       style="fill:#00b0bd;fill-opacity:1">
      <path
         inkscape:connector-curvature="0"
         id="path132"
         style="fill:#00b0bd;fill-opacity:1;fill-rule:nonzero;stroke:none"
         d="m 0,0 h -16 c -0.552,0 -1,-0.448 -1,-1 0,-0.552 0.448,-1 1,-1 h 2.059 l 0.353,-2 h 11.176 l 0.353,2 H 0 c 0.552,0 1,0.448 1,1 0,0.552 -0.448,1 -1,1" />
    </g>
  </g>
</svg>
