<?xml version="1.0" encoding="UTF-8" standalone="no"?>
<!-- Created with Inkscape (http://www.inkscape.org/) -->

<svg
   xmlns:dc="http://purl.org/dc/elements/1.1/"
   xmlns:cc="http://creativecommons.org/ns#"
   xmlns:rdf="http://www.w3.org/1999/02/22-rdf-syntax-ns#"
   xmlns:svg="http://www.w3.org/2000/svg"
   xmlns="http://www.w3.org/2000/svg"
   xmlns:sodipodi="http://sodipodi.sourceforge.net/DTD/sodipodi-0.dtd"
   xmlns:inkscape="http://www.inkscape.org/namespaces/inkscape"
   width="70mm"
   height="94.993752mm"
   viewBox="0 0 70 94.993752"
   version="1.1"
   id="svg4863"
   inkscape:version="0.92.3pre0 (0ab9bec, 2018-03-03)"
   sodipodi:docname="polishing.svg">
  <defs
     id="defs4857" />
  <sodipodi:namedview
     id="base"
     pagecolor="#ffffff"
     bordercolor="#666666"
     borderopacity="1.0"
     inkscape:pageopacity="0.0"
     inkscape:pageshadow="2"
     inkscape:zoom="0.35"
     inkscape:cx="-348.01423"
     inkscape:cy="494.71648"
     inkscape:document-units="mm"
     inkscape:current-layer="layer1"
     showgrid="false"
     fit-margin-top="10"
     fit-margin-left="10"
     fit-margin-right="10"
     fit-margin-bottom="10"
     inkscape:window-width="1920"
     inkscape:window-height="1036"
     inkscape:window-x="0"
     inkscape:window-y="0"
     inkscape:window-maximized="1" />
  <metadata
     id="metadata4860">
    <rdf:RDF>
      <cc:Work
         rdf:about="">
        <dc:format>image/svg+xml</dc:format>
        <dc:type
           rdf:resource="http://purl.org/dc/dcmitype/StillImage" />
        <dc:title></dc:title>
      </cc:Work>
    </rdf:RDF>
  </metadata>
  <g
     inkscape:label="Layer 1"
     inkscape:groupmode="layer"
     id="layer1"
     transform="translate(-47.85555,-153.19245)">
    <g
       transform="matrix(1.25,0,0,-1.25,88.687027,189.43375)"
       id="g26"
       style="fill:#00b0bd;fill-opacity:1">
      <path
         inkscape:connector-curvature="0"
         id="path28"
         style="fill:#00b0bd;fill-opacity:1;fill-rule:nonzero;stroke:none"
         d="M 0,0 -1.013,3.286 -2.026,0 c -0.103,-0.335 -0.366,-0.598 -0.702,-0.701 l -3.285,-1.013 3.285,-1.013 c 0.336,-0.103 0.599,-0.366 0.702,-0.701 L -1.013,-6.714 0,-3.428 c 0.103,0.335 0.366,0.598 0.701,0.701 l 3.286,1.013 -3.286,1.013 C 0.366,-0.598 0.103,-0.335 0,0" />
    </g>
    <g
       transform="matrix(1.25,0,0,-1.25,64.563525,181.59202)"
       id="g30"
       style="fill:#00b0bd;fill-opacity:1">
      <path
         inkscape:connector-curvature="0"
         id="path32"
         style="fill:#00b0bd;fill-opacity:1;fill-rule:nonzero;stroke:none"
         d="M 0,0 3.286,1.013 0,2.025 C -0.335,2.129 -0.599,2.392 -0.701,2.727 L -1.714,6.013 -2.728,2.727 C -2.83,2.392 -3.093,2.129 -3.429,2.025 L -6.714,1.013 -3.429,0 c 0.336,-0.104 0.599,-0.366 0.701,-0.701 l 1.014,-3.286 1.013,3.286 C -0.599,-0.366 -0.335,-0.104 0,0" />
    </g>
    <g
       transform="matrix(1.25,0,0,-1.25,94.480397,194.20424)"
       id="g34"
       style="fill:#00b0bd;fill-opacity:1">
      <path
         inkscape:connector-curvature="0"
         id="path36"
         style="fill:#00b0bd;fill-opacity:1;fill-rule:nonzero;stroke:none"
         d="m 0,0 -2.71,-0.835 -0.835,-2.711 c -0.285,-0.922 -1.138,-1.552 -2.103,-1.552 -0.965,0 -1.818,0.63 -2.102,1.552 L -8.586,-0.835 -11.296,0 c -0.923,0.284 -1.552,1.137 -1.552,2.103 0,0.965 0.629,1.818 1.552,2.102 l 2.71,0.835 0.836,2.711 c 0.284,0.922 1.137,1.552 2.102,1.552 0.965,0 1.818,-0.63 2.103,-1.552 L -2.71,5.04 0,4.205 C 0.923,3.921 1.552,3.068 1.552,2.103 1.552,1.137 0.923,0.284 0,0 M 6.414,5.165 3.704,6 C 2.781,6.284 2.152,7.137 2.152,8.103 c 0,0.965 0.629,1.818 1.552,2.102 l 2.71,0.835 0.231,0.748 c -1.045,5.515 -5.962,6.815 -7.793,6.815 -2.053,0 -4.572,-1.25 -8,-1.25 -3.428,0 -5.947,1.25 -8,1.25 -1.293,0 -4.13,-0.646 -6.054,-2.968 L -22.71,14.04 -20,13.205 c 0.923,-0.284 1.552,-1.137 1.552,-2.102 0,-0.966 -0.629,-1.819 -1.552,-2.103 l -2.71,-0.835 -0.835,-2.711 c -0.165,-0.532 -0.521,-0.961 -0.976,-1.234 0.878,-3.735 2.373,-6.119 2.373,-7.617 0,-1.233 -0.099,-11.937 1.376,-18.279 1.062,-4.568 2.481,-7.721 4.196,-7.721 1.713,0 1.627,5.93 2.414,10.227 0.786,4.296 2.729,9.773 5.014,9.773 2.285,0 4.228,-5.477 5.014,-9.773 0.787,-4.297 0.701,-10.227 2.414,-10.227 1.715,0 3.135,3.153 4.197,7.721 1.474,6.342 1.375,17.046 1.375,18.279 0,1.617 1.743,4.264 2.571,8.534 z" />
    </g>
    <g
       transform="matrix(1.25,0,0,-1.25,108.3135,182.81024)"
       id="g38"
       style="fill:#00b0bd;fill-opacity:1">
      <path
         inkscape:connector-curvature="0"
         id="path40"
         style="fill:#00b0bd;fill-opacity:1;fill-rule:nonzero;stroke:none"
         d="M 0,0 C -0.335,0.104 -0.599,0.366 -0.701,0.701 L -1.714,3.987 -2.728,0.701 C -2.83,0.366 -3.093,0.104 -3.429,0 l -3.285,-1.013 3.285,-1.012 c 0.336,-0.104 0.599,-0.367 0.701,-0.702 l 1.014,-3.286 1.013,3.286 c 0.102,0.335 0.366,0.598 0.701,0.702 l 3.286,1.012 z" />
    </g>
  </g>
</svg>
