<?xml version="1.0" encoding="UTF-8" standalone="no"?>
<!-- Created with Inkscape (http://www.inkscape.org/) -->

<svg
   xmlns:dc="http://purl.org/dc/elements/1.1/"
   xmlns:cc="http://creativecommons.org/ns#"
   xmlns:rdf="http://www.w3.org/1999/02/22-rdf-syntax-ns#"
   xmlns:svg="http://www.w3.org/2000/svg"
   xmlns="http://www.w3.org/2000/svg"
   xmlns:sodipodi="http://sodipodi.sourceforge.net/DTD/sodipodi-0.dtd"
   xmlns:inkscape="http://www.inkscape.org/namespaces/inkscape"
   width="178.53752mm"
   height="49.564831mm"
   viewBox="0 0 178.53752 49.564831"
   version="1.1"
   id="svg8"
   inkscape:version="0.92.2 (5c3e80d, 2017-08-06)"
   sodipodi:docname="pslogo.svg"
   inkscape:export-filename="/home/rogon/psdental-web/img/pslogo.png"
   inkscape:export-xdpi="42.680103"
   inkscape:export-ydpi="42.680103">
  <defs
     id="defs2" />
  <sodipodi:namedview
     id="base"
     pagecolor="#ffffff"
     bordercolor="#666666"
     borderopacity="1.0"
     inkscape:pageopacity="0.0"
     inkscape:pageshadow="2"
     inkscape:zoom="0.7"
     inkscape:cx="832.76727"
     inkscape:cy="-196.88385"
     inkscape:document-units="mm"
     inkscape:current-layer="layer1"
     showgrid="false"
     showguides="true"
     fit-margin-top="5"
     fit-margin-left="5"
     fit-margin-right="5"
     fit-margin-bottom="5"
     inkscape:window-width="1920"
     inkscape:window-height="1036"
     inkscape:window-x="0"
     inkscape:window-y="0"
     inkscape:window-maximized="1" />
  <metadata
     id="metadata5">
    <rdf:RDF>
      <cc:Work
         rdf:about="">
        <dc:format>image/svg+xml</dc:format>
        <dc:type
           rdf:resource="http://purl.org/dc/dcmitype/StillImage" />
        <dc:title></dc:title>
      </cc:Work>
    </rdf:RDF>
  </metadata>
  <g
     inkscape:label="Layer 1"
     inkscape:groupmode="layer"
     id="layer1"
     transform="translate(-19.107475,-93.137514)">
    <path
       style="fill:#00968b;fill-opacity:1;stroke-width:0.35277778"
       d="m 33.788853,137.24563 c -3.23724,-1.40961 -4.82353,-5.72234 -6.46325,-17.57199 -0.59446,-4.29595 -0.93481,-5.65694 -1.96487,-7.85705 -1.53668,-3.28221 -1.64608,-5.47544 -0.40598,-8.13863 1.04357,-2.24112 3.00587,-3.891147 5.49305,-4.618934 1.52263,-0.445537 2.73285,-0.511517 5.81035,-0.316787 2.13792,0.13528 4.62088,0.385117 5.51769,0.555197 1.29302,0.245207 2.0985,0.16029 3.89105,-0.410237 3.15564,-1.004364 7.90156,-0.998857 10.56514,0.0123 2.08962,0.793244 4.28882,2.752141 4.89328,4.358581 0.67496,1.79382 0.82219,5.39858 0.40077,9.81235 -0.78244,8.19501 -2.46725,15.14394 -4.78526,19.73673 -1.26484,2.50609 -2.28332,3.63164 -3.80933,4.20983 -3.48767,1.32144 -5.50969,-1.19698 -7.62868,-9.5015 -0.61886,-2.42535 -1.25898,-4.54583 -1.4225,-4.71218 -0.47943,-0.48775 -1.02992,0.91991 -1.94498,4.9736 -1.46718,6.49949 -2.36879,8.36168 -4.54947,9.39648 -1.44428,0.68536 -2.15618,0.69966 -3.59701,0.0723 z m 3.20702,-3.94365 c 0.40392,-0.60096 1.18355,-3.06158 1.7325,-5.46806 1.43194,-6.27725 2.52298,-8.07957 4.89097,-8.07957 2.36225,0 3.22911,1.39147 4.83868,7.76699 1.5339,6.07576 2.36652,7.50639 3.89317,6.68936 3.31723,-1.77533 7.9743,-25.43418 5.82476,-29.59095 -0.77252,-1.49388 -2.84481,-3.14564 -4.28564,-3.41594 -1.75758,-0.32972 -5.14896,0.0283 -8.58957,0.90675 -3.28051,0.83759 -5.68959,1.88605 -8.5107,3.70397 -2.31278,1.49035 -3.24764,1.4016 -3.08097,-0.29251 0.0798,-0.81094 0.485,-1.36314 1.58494,-2.15983 0.81276,-0.58869 1.48745,-1.1894 1.4993,-1.33492 0.0378,-0.46353 -4.89463,-0.284 -6.07519,0.22113 -2.0164,0.86276 -3.17282,2.43616 -3.34862,4.55607 -0.13277,1.60096 0.0139,2.2191 0.98073,4.13445 0.94692,1.87585 1.30693,3.34542 2.15501,8.79694 1.27218,8.17768 2.11349,11.55118 3.34471,13.41167 1.14951,1.73703 2.05241,1.78136 3.14592,0.15445 z"
       id="path880"
       inkscape:connector-curvature="0" />
    <text
       xml:space="preserve"
       style="font-style:normal;font-variant:normal;font-weight:bold;font-stretch:normal;font-size:16.93333244px;line-height:1.25;font-family:'Nimbus Sans L';-inkscape-font-specification:'Nimbus Sans L Bold';letter-spacing:0px;word-spacing:0px;fill:#404040;fill-opacity:1;stroke:none;stroke-width:0.26458332"
       x="67.430939"
       y="116.06279"
       id="text884"><tspan
         sodipodi:role="line"
         x="67.430939"
         y="116.06279"
         style="font-style:normal;font-variant:normal;font-weight:bold;font-stretch:normal;font-size:16.93333244px;font-family:'Nimbus Sans L';-inkscape-font-specification:'Nimbus Sans L Bold';fill:#404040;stroke-width:0.26458332"
         id="tspan890">PALM SQUARE </tspan></text>
    <text
       xml:space="preserve"
       style="font-style:normal;font-variant:normal;font-weight:normal;font-stretch:normal;font-size:14.11111069px;line-height:1.25;font-family:'Nimbus Sans L';-inkscape-font-specification:'Nimbus Sans L';letter-spacing:0.55562502px;word-spacing:0px;fill:#404040;fill-opacity:1;stroke:none;stroke-width:0.26458332"
       x="67.223625"
       y="131.63243"
       id="text884-3"><tspan
         sodipodi:role="line"
         x="67.223625"
         y="131.63243"
         style="font-style:normal;font-variant:normal;font-weight:normal;font-stretch:normal;font-size:14.11111069px;font-family:'Nimbus Sans L';-inkscape-font-specification:'Nimbus Sans L';letter-spacing:0.55562502px;word-spacing:0px;fill:#404040;stroke-width:0.26458332"
         id="tspan890-2">DENTAL CENTER</tspan></text>
  </g>
</svg>
