<svg width="178.54mm" height="49.565mm" version="1.1" viewBox="0 0 178.54 49.565" xmlns="http://www.w3.org/2000/svg">
 <g transform="translate(-19.107 -93.138)">
  <path d="m33.789 137.25c-3.2372-1.4096-4.8235-5.7223-6.4632-17.572-0.59446-4.296-0.93481-5.6569-1.9649-7.857-1.5367-3.2822-1.6461-5.4754-0.40598-8.1386 1.0436-2.2411 3.0059-3.8911 5.493-4.6189 1.5226-0.44554 2.7328-0.51152 5.8104-0.31679 2.1379 0.13528 4.6209 0.38512 5.5177 0.5552 1.293 0.24521 2.0985 0.16029 3.891-0.41024 3.1556-1.0044 7.9016-0.99886 10.565 0.0123 2.0896 0.79324 4.2888 2.7521 4.8933 4.3586 0.67496 1.7938 0.82219 5.3986 0.40077 9.8124-0.78244 8.195-2.4672 15.144-4.7853 19.737-1.2648 2.5061-2.2833 3.6316-3.8093 4.2098-3.4877 1.3214-5.5097-1.197-7.6287-9.5015-0.61886-2.4254-1.259-4.5458-1.4225-4.7122-0.47943-0.48775-1.0299 0.91991-1.945 4.9736-1.4672 6.4995-2.3688 8.3617-4.5495 9.3965-1.4443 0.68536-2.1562 0.69966-3.597 0.0723zm3.207-3.9436c0.40392-0.60096 1.1836-3.0616 1.7325-5.4681 1.4319-6.2772 2.523-8.0796 4.891-8.0796 2.3622 0 3.2291 1.3915 4.8387 7.767 1.5339 6.0758 2.3665 7.5064 3.8932 6.6894 3.3172-1.7753 7.9743-25.434 5.8248-29.591-0.77252-1.4939-2.8448-3.1456-4.2856-3.4159-1.7576-0.32972-5.149 0.0283-8.5896 0.90675-3.2805 0.83759-5.6896 1.886-8.5107 3.704-2.3128 1.4904-3.2476 1.4016-3.081-0.29251 0.0798-0.81094 0.485-1.3631 1.5849-2.1598 0.81276-0.58869 1.4874-1.1894 1.4993-1.3349 0.0378-0.46353-4.8946-0.284-6.0752 0.22113-2.0164 0.86276-3.1728 2.4362-3.3486 4.5561-0.13277 1.601 0.0139 2.2191 0.98073 4.1344 0.94692 1.8758 1.3069 3.3454 2.155 8.7969 1.2722 8.1777 2.1135 11.551 3.3447 13.412 1.1495 1.737 2.0524 1.7814 3.1459 0.15445z" fill="#00968b" stroke-width=".35278"/>
  <text x="67.430939" y="116.06279" fill="#bfbfbf" font-family="'Nimbus Sans L'" font-size="16.933px" font-weight="bold" letter-spacing="0px" stroke-width=".26458" word-spacing="0px" style="line-height:1.25" xml:space="preserve"><tspan x="67.430939" y="116.06279" fill="#bfbfbf" font-family="'Nimbus Sans L'" font-size="16.933px" font-weight="bold" stroke-width=".26458">PALM SQUARE </tspan></text>
  <text x="67.223625" y="131.63243" fill="#bfbfbf" font-family="'Nimbus Sans L'" font-size="14.111px" letter-spacing=".55563px" stroke-width=".26458" word-spacing="0px" style="line-height:1.25" xml:space="preserve"><tspan x="67.223625" y="131.63243" fill="#bfbfbf" font-family="'Nimbus Sans L'" font-size="14.111px" letter-spacing=".55563px" stroke-width=".26458" word-spacing="0px">DENTAL CENTER</tspan></text>
 </g>
</svg>
