<?xml version="1.0" encoding="UTF-8" standalone="no"?>
<!-- Created with Inkscape (http://www.inkscape.org/) -->

<svg
   xmlns:dc="http://purl.org/dc/elements/1.1/"
   xmlns:cc="http://creativecommons.org/ns#"
   xmlns:rdf="http://www.w3.org/1999/02/22-rdf-syntax-ns#"
   xmlns:svg="http://www.w3.org/2000/svg"
   xmlns="http://www.w3.org/2000/svg"
   xmlns:sodipodi="http://sodipodi.sourceforge.net/DTD/sodipodi-0.dtd"
   xmlns:inkscape="http://www.inkscape.org/namespaces/inkscape"
   width="70mm"
   height="94.993752mm"
   viewBox="0 0 70 94.993752"
   version="1.1"
   id="svg4863"
   inkscape:version="0.92.3pre0 (0ab9bec, 2018-03-03)"
   sodipodi:docname="rootcanal.svg">
  <defs
     id="defs4857" />
  <sodipodi:namedview
     id="base"
     pagecolor="#ffffff"
     bordercolor="#666666"
     borderopacity="1.0"
     inkscape:pageopacity="0.0"
     inkscape:pageshadow="2"
     inkscape:zoom="0.35"
     inkscape:cx="-348.01423"
     inkscape:cy="494.71648"
     inkscape:document-units="mm"
     inkscape:current-layer="layer1"
     showgrid="false"
     fit-margin-top="10"
     fit-margin-left="10"
     fit-margin-right="10"
     fit-margin-bottom="10"
     inkscape:window-width="1920"
     inkscape:window-height="1036"
     inkscape:window-x="0"
     inkscape:window-y="0"
     inkscape:window-maximized="1" />
  <metadata
     id="metadata4860">
    <rdf:RDF>
      <cc:Work
         rdf:about="">
        <dc:format>image/svg+xml</dc:format>
        <dc:type
           rdf:resource="http://purl.org/dc/dcmitype/StillImage" />
        <dc:title></dc:title>
      </cc:Work>
    </rdf:RDF>
  </metadata>
  <g
     inkscape:label="Layer 1"
     inkscape:groupmode="layer"
     id="layer1"
     transform="translate(-47.85555,-153.19245)">
    <g
       transform="matrix(0.9984871,0,0,-0.9984871,90.310276,204.93313)"
       id="g152"
       style="fill:#00b0bd;fill-opacity:1">
      <path
         inkscape:connector-curvature="0"
         id="path154"
         style="fill:#00b0bd;fill-opacity:1;fill-rule:nonzero;stroke:none"
         d="M 0,0 C 0,1.604 -0.152,3.217 -0.454,4.8 H -0.489 L -0.491,5.01 -0.524,5.155 C -0.774,6.27 -1.875,9.8 -5.8,9.8 -9.672,9.8 -10.798,6.324 -11.051,5.26 -11.415,3.536 -11.6,1.765 -11.6,0 v -9.695 c 0.743,1.673 1.293,4.64 1.726,7.005 0.639,3.491 2.218,7.94 4.074,7.94 1.857,0 3.436,-4.449 4.074,-7.94 0.433,-2.365 0.984,-5.332 1.726,-7.005 z" />
    </g>
    <g
       transform="matrix(0.9984871,0,0,-0.9984871,91.009402,176.97548)"
       id="g156"
       style="fill:#00b0bd;fill-opacity:1">
      <path
         inkscape:connector-curvature="0"
         id="path158"
         style="fill:#00b0bd;fill-opacity:1;fill-rule:nonzero;stroke:none"
         d="M 0,0 C -1.668,0 -3.715,-1.016 -6.5,-1.016 -9.285,-1.016 -11.332,0 -13,0 c -1.668,0 -6.5,-1.315 -6.5,-7.312 0,-5.688 2.438,-8.84 2.438,-10.563 0,-1.001 0.27,-9.542 1.117,-14.852 0.382,-2.391 0.704,-4.273 1.245,-5.33 V -28 c 0,1.654 0.147,3.317 0.437,4.943 l 0.046,0.257 c 0.071,0.376 0.696,3.716 0.909,5.572 0.147,1.286 -0.054,2.233 -0.216,2.993 -0.095,0.442 -0.176,0.823 -0.176,1.188 0,1.656 1.137,2.247 2.2,2.247 0.443,0 1.045,-0.177 1.742,-0.381 0.943,-0.276 2.115,-0.619 3.258,-0.619 1.143,0 2.315,0.343 3.258,0.619 0.697,0.204 1.299,0.381 1.742,0.381 1.063,0 2.2,-0.591 2.2,-2.247 0,-0.365 -0.081,-0.746 -0.176,-1.188 -0.162,-0.76 -0.363,-1.707 -0.216,-2.993 0.207,-1.807 0.794,-4.958 0.909,-5.571 l 0.031,-0.166 C 1.548,-24.625 1.7,-26.319 1.7,-28 v -10.069 c 0.55,1.054 0.878,2.94 1.245,5.342 0.805,5.269 1.117,13.851 1.117,14.852 C 4.062,-16.152 6.5,-13 6.5,-7.312 6.5,-1.315 1.668,0 0,0" />
    </g>
    <g
       transform="matrix(0.9984871,0,0,-0.9984871,100.49504,191.9528)"
       id="g160"
       style="fill:#00b0bd;fill-opacity:1">
      <path
         inkscape:connector-curvature="0"
         id="path162"
         style="fill:#00b0bd;fill-opacity:1;fill-rule:nonzero;stroke:none"
         d="m 0,0 c -1.681,0 -2.646,-1.4 -2.914,-1.852 -0.167,-0.442 -0.313,-0.861 -0.324,-1.037 10e-4,-1.129 -0.315,-9.752 -1.142,-15.17 -0.641,-4.187 -1.245,-8.141 -4.62,-8.141 -3.239,0 -4.097,4.686 -5.09,10.114 -0.486,2.659 -1.306,4.743 -1.91,5.711 -0.604,-0.968 -1.424,-3.052 -1.91,-5.711 -0.993,-5.428 -1.851,-10.114 -5.09,-10.114 -3.32,0 -3.922,3.766 -4.618,8.127 -0.896,5.616 -1.145,14.381 -1.145,15.198 -0.011,0.167 -0.156,0.582 -0.322,1.023 C -29.353,-1.402 -30.318,0 -32,0 c -2,0 -4,-5 -8,-5 v -24 c 0,-2.209 1.791,-4 4,-4 H 4 c 2.209,0 4,1.791 4,4 V -5 C 4,-5 2,0 0,0" />
    </g>
  </g>
</svg>
